<svg width="78" height="76" viewBox="0 0 78 76" fill="none" xmlns="http://www.w3.org/2000/svg">
<path d="M58.2567 7.55182C60.9081 7.55182 63.0565 9.6232 63.1668 12.2042L63.1719 12.4142V27.9739C63.1719 28.5107 62.7185 28.9464 62.1599 28.9464C61.6408 28.9464 61.2127 28.571 61.155 28.0877L61.1479 27.9739V12.4142C61.1479 10.8534 59.9366 9.59013 58.4257 9.50164L58.2567 9.49678H7.50983C5.9787 9.49678 4.7117 10.7046 4.62366 12.2421L4.6186 12.4142V74.6529C4.6186 76.2137 5.82994 77.4769 7.34083 77.5654L7.50983 77.5703H58.2567C59.7878 77.5703 61.0548 76.3625 61.1429 74.825L61.1479 74.6529V58.1207C61.1479 57.5839 61.6013 57.1482 62.1599 57.1482C62.6791 57.1482 63.1061 57.5236 63.1648 58.0069L63.1719 58.1207V74.6529C63.1719 77.2601 61.0933 79.3995 58.4702 79.5104L58.2567 79.5153H7.50983C4.85844 79.5153 2.71 77.4439 2.59868 74.8629L2.59464 74.6529V12.4142C2.59464 9.807 4.67325 7.66754 7.2963 7.55668L7.50983 7.55182H58.2567ZM11.6104 68.5399C12.4473 68.5399 13.1253 69.1934 13.1253 69.9986C13.1253 70.8048 12.4473 71.4573 11.6104 71.4573C10.7745 71.4573 10.0965 70.8048 10.0965 69.9986C10.0965 69.1934 10.7745 68.5399 11.6104 68.5399ZM42.5467 69.4433V71.3883H16.5853V69.4433H42.5447H42.5467ZM11.6094 61.0382C12.4463 61.0382 13.1243 61.6917 13.1243 62.4969C13.1243 63.3021 12.4463 63.9556 11.6094 63.9556C10.7735 63.9556 10.0954 63.3021 10.0954 62.4969C10.0954 61.6917 10.7735 61.0382 11.6094 61.0382ZM32.1607 61.9416V63.8866H16.5863V61.9416H32.1607ZM11.6114 53.5365C12.4483 53.5365 13.1263 54.189 13.1263 54.9952C13.1263 55.8004 12.4483 56.4539 11.6114 56.4539C10.7755 56.4539 10.0975 55.8004 10.0975 54.9952C10.0975 54.189 10.7755 53.5365 11.6114 53.5365ZM47.7392 54.4389V56.3839H16.5863V54.4389H47.7392ZM11.6114 46.0338C12.4483 46.0338 13.1263 46.6873 13.1263 47.4925C13.1263 48.2987 12.4483 48.9512 11.6114 48.9512C10.7755 48.9512 10.0975 48.2987 10.0975 47.4925C10.0975 46.6873 10.7755 46.0338 11.6114 46.0338ZM34.7595 46.9372V48.8822H16.5863V46.9372H34.7585H34.7595ZM41.2493 39.4355V41.3805H10.0965V39.4355H41.2483H41.2493ZM46.4408 33.1834V35.1284H10.0965V33.1834H46.4398H46.4408ZM14.6403 21.0275C16.4325 21.0275 17.8857 22.4278 17.8857 24.153C17.8857 25.8801 16.4325 27.2795 14.6403 27.2795C12.8491 27.2795 11.3958 25.8792 11.3958 24.153C11.3958 22.4269 12.848 21.0275 14.6403 21.0275ZM23.7258 21.0275C25.5181 21.0275 26.9713 22.4278 26.9713 24.153C26.9713 25.8801 25.5181 27.2795 23.7258 27.2795C21.9346 27.2795 20.4814 25.8792 20.4814 24.153C20.4814 22.4269 21.9346 21.0275 23.7258 21.0275ZM32.8124 21.0275C34.6036 21.0275 36.0568 22.4278 36.0568 24.153C36.0568 25.8801 34.6046 27.2795 32.8124 27.2795C31.0202 27.2795 29.567 25.8792 29.567 24.153C29.567 22.4269 31.0202 21.0275 32.8124 21.0275ZM41.898 21.0275C43.6892 21.0275 45.1424 22.4278 45.1424 24.153C45.1424 25.8801 43.6902 27.2795 41.898 27.2795C40.1058 27.2795 38.6526 25.8792 38.6526 24.153C38.6526 22.4269 40.1058 21.0275 41.898 21.0275ZM50.9836 21.0275C52.7758 21.0275 54.229 22.4278 54.229 24.153C54.229 25.8801 52.7758 27.2795 50.9836 27.2795C49.1924 27.2795 47.7392 25.8792 47.7392 24.153C47.7392 22.4269 49.1914 21.0275 50.9836 21.0275ZM22.7887 15.8179V17.7628H10.6723V15.8179H22.7867H22.7887ZM38.94 15.8179V17.7628H26.8266V15.8179H38.94ZM55.0932 15.8179V17.7628H42.9788V15.8179H55.0922H55.0932Z" fill="#05070F"/>
<path d="M62.8076 31.8638C69.2347 31.8638 74.4454 36.8711 74.4454 43.0473C74.4454 49.2235 69.2347 54.2308 62.8076 54.2308C56.3805 54.2308 51.1698 49.2235 51.1698 43.0473C51.1698 36.8711 56.3805 31.8638 62.8076 31.8638ZM62.8076 33.8088C57.4977 33.8088 53.1937 37.9447 53.1937 43.0473C53.1937 48.1499 57.4977 52.2859 62.8076 52.2859C68.1175 52.2859 72.4214 48.1499 72.4214 43.0473C72.4214 37.9447 68.1175 33.8088 62.8076 33.8088ZM62.8076 37.6987C63.3267 37.6987 63.7548 38.0741 63.8125 38.5574L63.8196 38.6712V42.0748H67.3615C67.9201 42.0748 68.3735 42.5105 68.3735 43.0473C68.3735 43.5462 67.9829 43.9576 67.4799 44.013L67.3615 44.0198H63.8196V47.4235C63.8196 47.9603 63.3662 48.3959 62.8076 48.3959C62.2884 48.3959 61.8604 48.0206 61.8027 47.5372L61.7956 47.4235V44.0198H58.2537C57.695 44.0198 57.2417 43.5841 57.2417 43.0473C57.2417 42.5484 57.6323 42.1371 58.1353 42.0816L58.2537 42.0748H61.7956V38.6712C61.7956 38.1343 62.249 37.6987 62.8076 37.6987Z" fill="#B538A8"/>
</svg>
